<svg width="145" height="35" viewBox="0 0 145 35" fill="none" xmlns="http://www.w3.org/2000/svg">
<circle cx="12.5" cy="11.5" r="11.5" fill="#F2EFE1"/>
<circle cx="52.5" cy="11.5" r="11.5" fill="#434242"/>
<circle cx="92.5" cy="11.5" r="11.5" fill="#222222"/>
<circle cx="132.5" cy="11.5" r="11.5" fill="#4FA19E"/>
<path d="M2.92538 31.246H2.08538C2.06538 31.414 2.04338 31.578 2.01938 31.738C1.99538 31.894 1.97338 32.054 1.95338 32.218H2.78738L2.92538 31.246ZM3.95738 31.144C3.95738 31.196 3.95338 31.226 3.94538 31.234C3.93738 31.242 3.90938 31.246 3.86138 31.246H3.30338C3.28338 31.414 3.25938 31.578 3.23138 31.738C3.20738 31.894 3.18538 32.054 3.16538 32.218H3.67538C3.73138 32.218 3.76338 32.222 3.77138 32.23C3.77938 32.238 3.78338 32.266 3.78338 32.314V32.458C3.78338 32.51 3.77938 32.54 3.77138 32.548C3.76338 32.556 3.73138 32.56 3.67538 32.56H3.11738L2.93738 33.856C2.92938 33.908 2.92138 33.938 2.91338 33.946C2.90538 33.954 2.87738 33.958 2.82938 33.958H2.65538C2.59938 33.958 2.56738 33.954 2.55938 33.946C2.55138 33.938 2.55138 33.908 2.55938 33.856L2.73938 32.56H1.89938L1.71938 33.862C1.71138 33.91 1.70138 33.938 1.68938 33.946C1.68138 33.954 1.64938 33.958 1.59338 33.958H1.43138C1.37538 33.958 1.34338 33.954 1.33538 33.946C1.32738 33.938 1.32738 33.91 1.33538 33.862L1.52138 32.56H0.951383C0.903383 32.56 0.875383 32.556 0.867383 32.548C0.859383 32.54 0.855383 32.512 0.855383 32.464V32.314C0.855383 32.266 0.859383 32.238 0.867383 32.23C0.875383 32.222 0.903383 32.218 0.951383 32.218H1.56338C1.58738 32.054 1.60938 31.894 1.62938 31.738C1.65338 31.578 1.67738 31.414 1.70138 31.246H1.10738C1.06338 31.246 1.03738 31.244 1.02938 31.24C1.02138 31.232 1.01738 31.206 1.01738 31.162V31C1.01738 30.956 1.02138 30.93 1.02938 30.922C1.03738 30.914 1.06338 30.91 1.10738 30.91H1.74938L1.92938 29.602C1.93738 29.558 1.94338 29.532 1.94738 29.524C1.95538 29.516 1.98138 29.512 2.02538 29.512H2.24138C2.28538 29.512 2.30938 29.516 2.31338 29.524C2.32138 29.528 2.32138 29.552 2.31338 29.596L2.12738 30.91H2.96138L3.14738 29.596C3.15538 29.552 3.16138 29.528 3.16538 29.524C3.17338 29.516 3.19738 29.512 3.23738 29.512H3.45938C3.50338 29.512 3.52738 29.516 3.53138 29.524C3.53938 29.532 3.53938 29.558 3.53138 29.602L3.33938 30.91H3.86138C3.90938 30.91 3.93738 30.914 3.94538 30.922C3.95338 30.93 3.95738 30.958 3.95738 31.006V31.144ZM5.19605 33.91C5.19605 33.966 5.16805 33.994 5.11205 33.994H4.83605C4.78005 33.994 4.75205 33.966 4.75205 33.91V29.728C4.75205 29.64 4.75805 29.59 4.77005 29.578C4.78605 29.562 4.83805 29.554 4.92605 29.554H6.93005C6.98605 29.554 7.01405 29.582 7.01405 29.638V29.842C7.01405 29.898 6.98605 29.926 6.93005 29.926H5.19605V31.516H6.84605C6.90205 31.516 6.93005 31.544 6.93005 31.6V31.816C6.93005 31.872 6.90205 31.9 6.84605 31.9H5.19605V33.91ZM7.68563 33.916C7.62563 33.9 7.59963 33.854 7.60763 33.778L7.63163 33.544C7.63963 33.496 7.67163 33.484 7.72763 33.508C7.89563 33.576 8.05363 33.624 8.20163 33.652C8.35363 33.68 8.52963 33.696 8.72963 33.7C9.04563 33.704 9.31163 33.624 9.52763 33.46C9.77963 33.292 9.90563 33.046 9.90563 32.722C9.90563 32.154 9.47963 31.87 8.62763 31.87H8.31563C8.26363 31.87 8.23763 31.848 8.23763 31.804V31.582C8.23763 31.53 8.26363 31.504 8.31563 31.504H8.34563C8.77363 31.504 9.10763 31.458 9.34763 31.366C9.71163 31.226 9.89363 30.974 9.89363 30.61C9.89363 30.494 9.86163 30.388 9.79763 30.292C9.73763 30.192 9.65563 30.108 9.55163 30.04C9.45563 29.984 9.34763 29.94 9.22763 29.908C9.10763 29.876 8.98163 29.86 8.84963 29.86C8.71363 29.86 8.56363 29.878 8.39963 29.914C8.23563 29.95 8.07763 29.998 7.92563 30.058C7.87363 30.078 7.84363 30.062 7.83563 30.01L7.81163 29.788C7.79963 29.732 7.82563 29.692 7.88963 29.668C8.06963 29.608 8.23763 29.564 8.39363 29.536C8.54963 29.508 8.71563 29.494 8.89163 29.494C9.29563 29.494 9.62563 29.58 9.88163 29.752C10.1736 29.948 10.3196 30.234 10.3196 30.61C10.3196 30.878 10.2236 31.11 10.0316 31.306C9.87163 31.478 9.66363 31.604 9.40763 31.684C9.53563 31.7 9.65363 31.734 9.76163 31.786C9.87363 31.838 9.96963 31.91 10.0496 32.002C10.1416 32.102 10.2116 32.216 10.2596 32.344C10.3076 32.468 10.3316 32.606 10.3316 32.758C10.3316 32.958 10.2896 33.14 10.2056 33.304C10.1256 33.464 10.0096 33.602 9.85763 33.718C9.70963 33.826 9.53963 33.912 9.34763 33.976C9.15563 34.036 8.94163 34.064 8.70563 34.06C8.49363 34.056 8.30963 34.044 8.15363 34.024C8.00163 34.004 7.84563 33.968 7.68563 33.916ZM11.6363 34C11.5523 34 11.5023 33.994 11.4863 33.982C11.4743 33.966 11.4683 33.916 11.4683 33.832V29.698C11.4683 29.622 11.4743 29.578 11.4863 29.566C11.5023 29.55 11.5483 29.542 11.6243 29.542H13.7063C13.7623 29.542 13.7903 29.57 13.7903 29.626V29.836C13.7903 29.892 13.7623 29.92 13.7063 29.92H11.9063V31.504H13.6163C13.6723 31.504 13.7003 31.532 13.7003 31.588V31.804C13.7003 31.86 13.6723 31.888 13.6163 31.888H11.9063V33.616H13.7783C13.8343 33.616 13.8623 33.644 13.8623 33.7V33.916C13.8623 33.972 13.8343 34 13.7783 34H11.6363ZM15.3093 33.91C15.3093 33.966 15.2813 33.994 15.2253 33.994H14.9493C14.8933 33.994 14.8653 33.966 14.8653 33.91V29.728C14.8653 29.64 14.8713 29.59 14.8833 29.578C14.8993 29.562 14.9513 29.554 15.0393 29.554H17.0433C17.0993 29.554 17.1273 29.582 17.1273 29.638V29.842C17.1273 29.898 17.0993 29.926 17.0433 29.926H15.3093V31.516H16.9593C17.0153 31.516 17.0433 31.544 17.0433 31.6V31.816C17.0433 31.872 17.0153 31.9 16.9593 31.9H15.3093V33.91ZM18.1109 34C18.0269 34 17.9769 33.994 17.9609 33.982C17.9489 33.966 17.9429 33.916 17.9429 33.832V29.698C17.9429 29.622 17.9489 29.578 17.9609 29.566C17.9769 29.55 18.0229 29.542 18.0989 29.542H20.1809C20.2369 29.542 20.2649 29.57 20.2649 29.626V29.836C20.2649 29.892 20.2369 29.92 20.1809 29.92H18.3809V31.504H20.0909C20.1469 31.504 20.1749 31.532 20.1749 31.588V31.804C20.1749 31.86 20.1469 31.888 20.0909 31.888H18.3809V33.616H20.2529C20.3089 33.616 20.3369 33.644 20.3369 33.7V33.916C20.3369 33.972 20.3089 34 20.2529 34H18.1109ZM23.6679 31.774C23.6679 30.518 23.3239 29.89 22.6359 29.89C21.9479 29.89 21.6039 30.518 21.6039 31.774C21.6039 33.034 21.9479 33.664 22.6359 33.664C23.3239 33.664 23.6679 33.034 23.6679 31.774ZM24.0999 31.774C24.0999 33.286 23.6119 34.042 22.6359 34.042C21.6519 34.042 21.1599 33.286 21.1599 31.774C21.1599 31.146 21.2559 30.636 21.4479 30.244C21.6919 29.752 22.0879 29.506 22.6359 29.506C23.1759 29.506 23.5699 29.752 23.8179 30.244C23.9099 30.44 23.9799 30.664 24.0279 30.916C24.0759 31.168 24.0999 31.454 24.0999 31.774Z" fill="black"/>
<path d="M41.6226 31.246H40.7826C40.7626 31.414 40.7406 31.578 40.7166 31.738C40.6926 31.894 40.6706 32.054 40.6506 32.218H41.4846L41.6226 31.246ZM42.6546 31.144C42.6546 31.196 42.6506 31.226 42.6426 31.234C42.6346 31.242 42.6066 31.246 42.5586 31.246H42.0006C41.9806 31.414 41.9566 31.578 41.9286 31.738C41.9046 31.894 41.8826 32.054 41.8626 32.218H42.3726C42.4286 32.218 42.4606 32.222 42.4686 32.23C42.4766 32.238 42.4806 32.266 42.4806 32.314V32.458C42.4806 32.51 42.4766 32.54 42.4686 32.548C42.4606 32.556 42.4286 32.56 42.3726 32.56H41.8146L41.6346 33.856C41.6266 33.908 41.6186 33.938 41.6106 33.946C41.6026 33.954 41.5746 33.958 41.5266 33.958H41.3526C41.2966 33.958 41.2646 33.954 41.2566 33.946C41.2486 33.938 41.2486 33.908 41.2566 33.856L41.4366 32.56H40.5966L40.4166 33.862C40.4086 33.91 40.3986 33.938 40.3866 33.946C40.3786 33.954 40.3466 33.958 40.2906 33.958H40.1286C40.0726 33.958 40.0406 33.954 40.0326 33.946C40.0246 33.938 40.0246 33.91 40.0326 33.862L40.2186 32.56H39.6486C39.6006 32.56 39.5726 32.556 39.5646 32.548C39.5566 32.54 39.5526 32.512 39.5526 32.464V32.314C39.5526 32.266 39.5566 32.238 39.5646 32.23C39.5726 32.222 39.6006 32.218 39.6486 32.218H40.2606C40.2846 32.054 40.3066 31.894 40.3266 31.738C40.3506 31.578 40.3746 31.414 40.3986 31.246H39.8046C39.7606 31.246 39.7346 31.244 39.7266 31.24C39.7186 31.232 39.7146 31.206 39.7146 31.162V31C39.7146 30.956 39.7186 30.93 39.7266 30.922C39.7346 30.914 39.7606 30.91 39.8046 30.91H40.4466L40.6266 29.602C40.6346 29.558 40.6406 29.532 40.6446 29.524C40.6526 29.516 40.6786 29.512 40.7226 29.512H40.9386C40.9826 29.512 41.0066 29.516 41.0106 29.524C41.0186 29.528 41.0186 29.552 41.0106 29.596L40.8246 30.91H41.6586L41.8446 29.596C41.8526 29.552 41.8586 29.528 41.8626 29.524C41.8706 29.516 41.8946 29.512 41.9346 29.512H42.1566C42.2006 29.512 42.2246 29.516 42.2286 29.524C42.2366 29.532 42.2366 29.558 42.2286 29.602L42.0366 30.91H42.5586C42.6066 30.91 42.6346 30.914 42.6426 30.922C42.6506 30.93 42.6546 30.958 42.6546 31.006V31.144ZM45.2553 32.596V29.92C44.9593 30.368 44.6653 30.814 44.3733 31.258C44.0813 31.702 43.7853 32.148 43.4853 32.596H45.2553ZM45.6633 33.934C45.6633 33.99 45.6353 34.018 45.5793 34.018H45.3393C45.2833 34.018 45.2553 33.99 45.2553 33.934V32.962H43.2753C43.1913 32.962 43.1413 32.956 43.1253 32.944C43.1133 32.928 43.1073 32.878 43.1073 32.794V32.608C43.1073 32.572 43.1093 32.548 43.1133 32.536C43.1173 32.524 43.1293 32.502 43.1493 32.47L45.0633 29.614C45.0873 29.578 45.1033 29.558 45.1113 29.554C45.1233 29.546 45.1513 29.542 45.1953 29.542H45.4953C45.5793 29.542 45.6273 29.55 45.6393 29.566C45.6553 29.578 45.6633 29.626 45.6633 29.71V32.596H46.2573C46.3133 32.596 46.3413 32.624 46.3413 32.68V32.878C46.3413 32.934 46.3133 32.962 46.2573 32.962H45.6633V33.934ZM47.004 33.916C46.944 33.9 46.918 33.854 46.926 33.778L46.95 33.544C46.958 33.496 46.99 33.484 47.046 33.508C47.214 33.576 47.372 33.624 47.52 33.652C47.672 33.68 47.848 33.696 48.048 33.7C48.364 33.704 48.63 33.624 48.846 33.46C49.098 33.292 49.224 33.046 49.224 32.722C49.224 32.154 48.798 31.87 47.946 31.87H47.634C47.582 31.87 47.556 31.848 47.556 31.804V31.582C47.556 31.53 47.582 31.504 47.634 31.504H47.664C48.092 31.504 48.426 31.458 48.666 31.366C49.03 31.226 49.212 30.974 49.212 30.61C49.212 30.494 49.18 30.388 49.116 30.292C49.056 30.192 48.974 30.108 48.87 30.04C48.774 29.984 48.666 29.94 48.546 29.908C48.426 29.876 48.3 29.86 48.168 29.86C48.032 29.86 47.882 29.878 47.718 29.914C47.554 29.95 47.396 29.998 47.244 30.058C47.192 30.078 47.162 30.062 47.154 30.01L47.13 29.788C47.118 29.732 47.144 29.692 47.208 29.668C47.388 29.608 47.556 29.564 47.712 29.536C47.868 29.508 48.034 29.494 48.21 29.494C48.614 29.494 48.944 29.58 49.2 29.752C49.492 29.948 49.638 30.234 49.638 30.61C49.638 30.878 49.542 31.11 49.35 31.306C49.19 31.478 48.982 31.604 48.726 31.684C48.854 31.7 48.972 31.734 49.08 31.786C49.192 31.838 49.288 31.91 49.368 32.002C49.46 32.102 49.53 32.216 49.578 32.344C49.626 32.468 49.65 32.606 49.65 32.758C49.65 32.958 49.608 33.14 49.524 33.304C49.444 33.464 49.328 33.602 49.176 33.718C49.028 33.826 48.858 33.912 48.666 33.976C48.474 34.036 48.26 34.064 48.024 34.06C47.812 34.056 47.628 34.044 47.472 34.024C47.32 34.004 47.164 33.968 47.004 33.916ZM52.5327 32.596V29.92C52.2367 30.368 51.9427 30.814 51.6507 31.258C51.3587 31.702 51.0627 32.148 50.7627 32.596H52.5327ZM52.9407 33.934C52.9407 33.99 52.9127 34.018 52.8567 34.018H52.6167C52.5607 34.018 52.5327 33.99 52.5327 33.934V32.962H50.5527C50.4687 32.962 50.4187 32.956 50.4027 32.944C50.3907 32.928 50.3847 32.878 50.3847 32.794V32.608C50.3847 32.572 50.3867 32.548 50.3907 32.536C50.3947 32.524 50.4067 32.502 50.4267 32.47L52.3407 29.614C52.3647 29.578 52.3807 29.558 52.3887 29.554C52.4007 29.546 52.4287 29.542 52.4727 29.542H52.7727C52.8567 29.542 52.9047 29.55 52.9167 29.566C52.9327 29.578 52.9407 29.626 52.9407 29.71V32.596H53.5347C53.5907 32.596 53.6187 32.624 53.6187 32.68V32.878C53.6187 32.934 53.5907 32.962 53.5347 32.962H52.9407V33.934ZM54.3593 34.018C54.3153 34.018 54.2813 34.016 54.2573 34.012C54.2373 34.012 54.2213 34.008 54.2093 34C54.2013 33.988 54.1953 33.972 54.1913 33.952C54.1913 33.928 54.1913 33.894 54.1913 33.85L54.1973 33.718C54.1973 33.666 54.2133 33.624 54.2453 33.592L55.2353 32.5C55.9713 31.704 56.3393 31.1 56.3393 30.688C56.3393 30.448 56.2593 30.248 56.0993 30.088C55.9433 29.932 55.7493 29.854 55.5173 29.854C55.1933 29.854 54.8553 29.944 54.5033 30.124C54.4473 30.152 54.4153 30.14 54.4073 30.088L54.3713 29.89C54.3593 29.822 54.3793 29.78 54.4313 29.764C54.6353 29.672 54.8193 29.604 54.9833 29.56C55.1473 29.516 55.3153 29.494 55.4873 29.494C55.8713 29.494 56.1773 29.59 56.4053 29.782C56.6613 29.99 56.7893 30.286 56.7893 30.67C56.7893 30.818 56.7533 30.98 56.6813 31.156C56.6093 31.332 56.5093 31.516 56.3813 31.708C56.3013 31.82 56.1873 31.966 56.0393 32.146C55.8953 32.326 55.7293 32.518 55.5413 32.722C55.4013 32.874 55.2613 33.028 55.1213 33.184C54.9853 33.34 54.8473 33.494 54.7073 33.646H56.8073C56.8633 33.646 56.8913 33.674 56.8913 33.73V33.934C56.8913 33.99 56.8633 34.018 56.8073 34.018H54.3593ZM59.81 32.596V29.92C59.514 30.368 59.22 30.814 58.928 31.258C58.636 31.702 58.34 32.148 58.04 32.596H59.81ZM60.218 33.934C60.218 33.99 60.19 34.018 60.134 34.018H59.894C59.838 34.018 59.81 33.99 59.81 33.934V32.962H57.83C57.746 32.962 57.696 32.956 57.68 32.944C57.668 32.928 57.662 32.878 57.662 32.794V32.608C57.662 32.572 57.664 32.548 57.668 32.536C57.672 32.524 57.684 32.502 57.704 32.47L59.618 29.614C59.642 29.578 59.658 29.558 59.666 29.554C59.678 29.546 59.706 29.542 59.75 29.542H60.05C60.134 29.542 60.182 29.55 60.194 29.566C60.21 29.578 60.218 29.626 60.218 29.71V32.596H60.812C60.868 32.596 60.896 32.624 60.896 32.68V32.878C60.896 32.934 60.868 32.962 60.812 32.962H60.218V33.934ZM61.6367 34.018C61.5927 34.018 61.5587 34.016 61.5347 34.012C61.5147 34.012 61.4987 34.008 61.4867 34C61.4787 33.988 61.4727 33.972 61.4687 33.952C61.4687 33.928 61.4687 33.894 61.4687 33.85L61.4747 33.718C61.4747 33.666 61.4907 33.624 61.5227 33.592L62.5127 32.5C63.2487 31.704 63.6167 31.1 63.6167 30.688C63.6167 30.448 63.5367 30.248 63.3767 30.088C63.2207 29.932 63.0267 29.854 62.7947 29.854C62.4707 29.854 62.1327 29.944 61.7807 30.124C61.7247 30.152 61.6927 30.14 61.6847 30.088L61.6487 29.89C61.6367 29.822 61.6567 29.78 61.7087 29.764C61.9127 29.672 62.0967 29.604 62.2607 29.56C62.4247 29.516 62.5927 29.494 62.7647 29.494C63.1487 29.494 63.4547 29.59 63.6827 29.782C63.9387 29.99 64.0667 30.286 64.0667 30.67C64.0667 30.818 64.0307 30.98 63.9587 31.156C63.8867 31.332 63.7867 31.516 63.6587 31.708C63.5787 31.82 63.4647 31.966 63.3167 32.146C63.1727 32.326 63.0067 32.518 62.8187 32.722C62.6787 32.874 62.5387 33.028 62.3987 33.184C62.2627 33.34 62.1247 33.494 61.9847 33.646H64.0847C64.1407 33.646 64.1687 33.674 64.1687 33.73V33.934C64.1687 33.99 64.1407 34.018 64.0847 34.018H61.6367Z" fill="black"/>
<path d="M81.6226 31.246H80.7826C80.7626 31.414 80.7406 31.578 80.7166 31.738C80.6926 31.894 80.6706 32.054 80.6506 32.218H81.4846L81.6226 31.246ZM82.6546 31.144C82.6546 31.196 82.6506 31.226 82.6426 31.234C82.6346 31.242 82.6066 31.246 82.5586 31.246H82.0006C81.9806 31.414 81.9566 31.578 81.9286 31.738C81.9046 31.894 81.8826 32.054 81.8626 32.218H82.3726C82.4286 32.218 82.4606 32.222 82.4686 32.23C82.4766 32.238 82.4806 32.266 82.4806 32.314V32.458C82.4806 32.51 82.4766 32.54 82.4686 32.548C82.4606 32.556 82.4286 32.56 82.3726 32.56H81.8146L81.6346 33.856C81.6266 33.908 81.6186 33.938 81.6106 33.946C81.6026 33.954 81.5746 33.958 81.5266 33.958H81.3526C81.2966 33.958 81.2646 33.954 81.2566 33.946C81.2486 33.938 81.2486 33.908 81.2566 33.856L81.4366 32.56H80.5966L80.4166 33.862C80.4086 33.91 80.3986 33.938 80.3866 33.946C80.3786 33.954 80.3466 33.958 80.2906 33.958H80.1286C80.0726 33.958 80.0406 33.954 80.0326 33.946C80.0246 33.938 80.0246 33.91 80.0326 33.862L80.2186 32.56H79.6486C79.6006 32.56 79.5726 32.556 79.5646 32.548C79.5566 32.54 79.5526 32.512 79.5526 32.464V32.314C79.5526 32.266 79.5566 32.238 79.5646 32.23C79.5726 32.222 79.6006 32.218 79.6486 32.218H80.2606C80.2846 32.054 80.3066 31.894 80.3266 31.738C80.3506 31.578 80.3746 31.414 80.3986 31.246H79.8046C79.7606 31.246 79.7346 31.244 79.7266 31.24C79.7186 31.232 79.7146 31.206 79.7146 31.162V31C79.7146 30.956 79.7186 30.93 79.7266 30.922C79.7346 30.914 79.7606 30.91 79.8046 30.91H80.4466L80.6266 29.602C80.6346 29.558 80.6406 29.532 80.6446 29.524C80.6526 29.516 80.6786 29.512 80.7226 29.512H80.9386C80.9826 29.512 81.0066 29.516 81.0106 29.524C81.0186 29.528 81.0186 29.552 81.0106 29.596L80.8246 30.91H81.6586L81.8446 29.596C81.8526 29.552 81.8586 29.528 81.8626 29.524C81.8706 29.516 81.8946 29.512 81.9346 29.512H82.1566C82.2006 29.512 82.2246 29.516 82.2286 29.524C82.2366 29.532 82.2366 29.558 82.2286 29.602L82.0366 30.91H82.5586C82.6066 30.91 82.6346 30.914 82.6426 30.922C82.6506 30.93 82.6546 30.958 82.6546 31.006V31.144ZM83.4433 34.018C83.3993 34.018 83.3653 34.016 83.3413 34.012C83.3213 34.012 83.3053 34.008 83.2933 34C83.2853 33.988 83.2793 33.972 83.2753 33.952C83.2753 33.928 83.2753 33.894 83.2753 33.85L83.2813 33.718C83.2813 33.666 83.2973 33.624 83.3293 33.592L84.3193 32.5C85.0553 31.704 85.4233 31.1 85.4233 30.688C85.4233 30.448 85.3433 30.248 85.1833 30.088C85.0273 29.932 84.8333 29.854 84.6013 29.854C84.2773 29.854 83.9393 29.944 83.5873 30.124C83.5313 30.152 83.4993 30.14 83.4913 30.088L83.4553 29.89C83.4433 29.822 83.4633 29.78 83.5153 29.764C83.7193 29.672 83.9033 29.604 84.0673 29.56C84.2313 29.516 84.3993 29.494 84.5713 29.494C84.9553 29.494 85.2613 29.59 85.4893 29.782C85.7453 29.99 85.8733 30.286 85.8733 30.67C85.8733 30.818 85.8373 30.98 85.7653 31.156C85.6933 31.332 85.5933 31.516 85.4653 31.708C85.3853 31.82 85.2713 31.966 85.1233 32.146C84.9793 32.326 84.8133 32.518 84.6253 32.722C84.4853 32.874 84.3453 33.028 84.2053 33.184C84.0693 33.34 83.9313 33.494 83.7913 33.646H85.8913C85.9473 33.646 85.9753 33.674 85.9753 33.73V33.934C85.9753 33.99 85.9473 34.018 85.8913 34.018H83.4433ZM87.082 34.018C87.038 34.018 87.004 34.016 86.98 34.012C86.96 34.012 86.944 34.008 86.932 34C86.924 33.988 86.918 33.972 86.914 33.952C86.914 33.928 86.914 33.894 86.914 33.85L86.92 33.718C86.92 33.666 86.936 33.624 86.968 33.592L87.958 32.5C88.694 31.704 89.062 31.1 89.062 30.688C89.062 30.448 88.982 30.248 88.822 30.088C88.666 29.932 88.472 29.854 88.24 29.854C87.916 29.854 87.578 29.944 87.226 30.124C87.17 30.152 87.138 30.14 87.13 30.088L87.094 29.89C87.082 29.822 87.102 29.78 87.154 29.764C87.358 29.672 87.542 29.604 87.706 29.56C87.87 29.516 88.038 29.494 88.21 29.494C88.594 29.494 88.9 29.59 89.128 29.782C89.384 29.99 89.512 30.286 89.512 30.67C89.512 30.818 89.476 30.98 89.404 31.156C89.332 31.332 89.232 31.516 89.104 31.708C89.024 31.82 88.91 31.966 88.762 32.146C88.618 32.326 88.452 32.518 88.264 32.722C88.124 32.874 87.984 33.028 87.844 33.184C87.708 33.34 87.57 33.494 87.43 33.646H89.53C89.586 33.646 89.614 33.674 89.614 33.73V33.934C89.614 33.99 89.586 34.018 89.53 34.018H87.082ZM90.7207 34.018C90.6767 34.018 90.6427 34.016 90.6187 34.012C90.5987 34.012 90.5827 34.008 90.5707 34C90.5627 33.988 90.5567 33.972 90.5527 33.952C90.5527 33.928 90.5527 33.894 90.5527 33.85L90.5587 33.718C90.5587 33.666 90.5747 33.624 90.6067 33.592L91.5967 32.5C92.3327 31.704 92.7007 31.1 92.7007 30.688C92.7007 30.448 92.6207 30.248 92.4607 30.088C92.3047 29.932 92.1107 29.854 91.8787 29.854C91.5547 29.854 91.2167 29.944 90.8647 30.124C90.8087 30.152 90.7767 30.14 90.7687 30.088L90.7327 29.89C90.7207 29.822 90.7407 29.78 90.7927 29.764C90.9967 29.672 91.1807 29.604 91.3447 29.56C91.5087 29.516 91.6767 29.494 91.8487 29.494C92.2327 29.494 92.5387 29.59 92.7667 29.782C93.0227 29.99 93.1507 30.286 93.1507 30.67C93.1507 30.818 93.1147 30.98 93.0427 31.156C92.9707 31.332 92.8707 31.516 92.7427 31.708C92.6627 31.82 92.5487 31.966 92.4007 32.146C92.2567 32.326 92.0907 32.518 91.9027 32.722C91.7627 32.874 91.6227 33.028 91.4827 33.184C91.3467 33.34 91.2087 33.494 91.0687 33.646H93.1687C93.2247 33.646 93.2527 33.674 93.2527 33.73V33.934C93.2527 33.99 93.2247 34.018 93.1687 34.018H90.7207ZM94.3593 34.018C94.3153 34.018 94.2813 34.016 94.2573 34.012C94.2373 34.012 94.2213 34.008 94.2093 34C94.2013 33.988 94.1953 33.972 94.1913 33.952C94.1913 33.928 94.1913 33.894 94.1913 33.85L94.1973 33.718C94.1973 33.666 94.2133 33.624 94.2453 33.592L95.2353 32.5C95.9713 31.704 96.3393 31.1 96.3393 30.688C96.3393 30.448 96.2593 30.248 96.0993 30.088C95.9433 29.932 95.7493 29.854 95.5173 29.854C95.1933 29.854 94.8553 29.944 94.5033 30.124C94.4473 30.152 94.4153 30.14 94.4073 30.088L94.3713 29.89C94.3593 29.822 94.3793 29.78 94.4313 29.764C94.6353 29.672 94.8193 29.604 94.9833 29.56C95.1473 29.516 95.3153 29.494 95.4873 29.494C95.8713 29.494 96.1773 29.59 96.4053 29.782C96.6613 29.99 96.7893 30.286 96.7893 30.67C96.7893 30.818 96.7533 30.98 96.6813 31.156C96.6093 31.332 96.5093 31.516 96.3813 31.708C96.3013 31.82 96.1873 31.966 96.0393 32.146C95.8953 32.326 95.7293 32.518 95.5413 32.722C95.4013 32.874 95.2613 33.028 95.1213 33.184C94.9853 33.34 94.8473 33.494 94.7073 33.646H96.8073C96.8633 33.646 96.8913 33.674 96.8913 33.73V33.934C96.8913 33.99 96.8633 34.018 96.8073 34.018H94.3593ZM97.998 34.018C97.954 34.018 97.92 34.016 97.896 34.012C97.876 34.012 97.86 34.008 97.848 34C97.84 33.988 97.834 33.972 97.83 33.952C97.83 33.928 97.83 33.894 97.83 33.85L97.836 33.718C97.836 33.666 97.852 33.624 97.884 33.592L98.874 32.5C99.61 31.704 99.978 31.1 99.978 30.688C99.978 30.448 99.898 30.248 99.738 30.088C99.582 29.932 99.388 29.854 99.156 29.854C98.832 29.854 98.494 29.944 98.142 30.124C98.086 30.152 98.054 30.14 98.046 30.088L98.01 29.89C97.998 29.822 98.018 29.78 98.07 29.764C98.274 29.672 98.458 29.604 98.622 29.56C98.786 29.516 98.954 29.494 99.126 29.494C99.51 29.494 99.816 29.59 100.044 29.782C100.3 29.99 100.428 30.286 100.428 30.67C100.428 30.818 100.392 30.98 100.32 31.156C100.248 31.332 100.148 31.516 100.02 31.708C99.94 31.82 99.826 31.966 99.678 32.146C99.534 32.326 99.368 32.518 99.18 32.722C99.04 32.874 98.9 33.028 98.76 33.184C98.624 33.34 98.486 33.494 98.346 33.646H100.446C100.502 33.646 100.53 33.674 100.53 33.73V33.934C100.53 33.99 100.502 34.018 100.446 34.018H97.998ZM101.637 34.018C101.593 34.018 101.559 34.016 101.535 34.012C101.515 34.012 101.499 34.008 101.487 34C101.479 33.988 101.473 33.972 101.469 33.952C101.469 33.928 101.469 33.894 101.469 33.85L101.475 33.718C101.475 33.666 101.491 33.624 101.523 33.592L102.513 32.5C103.249 31.704 103.617 31.1 103.617 30.688C103.617 30.448 103.537 30.248 103.377 30.088C103.221 29.932 103.027 29.854 102.795 29.854C102.471 29.854 102.133 29.944 101.781 30.124C101.725 30.152 101.693 30.14 101.685 30.088L101.649 29.89C101.637 29.822 101.657 29.78 101.709 29.764C101.913 29.672 102.097 29.604 102.261 29.56C102.425 29.516 102.593 29.494 102.765 29.494C103.149 29.494 103.455 29.59 103.683 29.782C103.939 29.99 104.067 30.286 104.067 30.67C104.067 30.818 104.031 30.98 103.959 31.156C103.887 31.332 103.787 31.516 103.659 31.708C103.579 31.82 103.465 31.966 103.317 32.146C103.173 32.326 103.007 32.518 102.819 32.722C102.679 32.874 102.539 33.028 102.399 33.184C102.263 33.34 102.125 33.494 101.985 33.646H104.085C104.141 33.646 104.169 33.674 104.169 33.73V33.934C104.169 33.99 104.141 34.018 104.085 34.018H101.637Z" fill="black"/>
<path d="M121.573 31.246H120.733C120.713 31.414 120.691 31.578 120.667 31.738C120.643 31.894 120.621 32.054 120.601 32.218H121.435L121.573 31.246ZM122.605 31.144C122.605 31.196 122.601 31.226 122.593 31.234C122.585 31.242 122.557 31.246 122.509 31.246H121.951C121.931 31.414 121.907 31.578 121.879 31.738C121.855 31.894 121.833 32.054 121.813 32.218H122.323C122.379 32.218 122.411 32.222 122.419 32.23C122.427 32.238 122.431 32.266 122.431 32.314V32.458C122.431 32.51 122.427 32.54 122.419 32.548C122.411 32.556 122.379 32.56 122.323 32.56H121.765L121.585 33.856C121.577 33.908 121.569 33.938 121.561 33.946C121.553 33.954 121.525 33.958 121.477 33.958H121.303C121.247 33.958 121.215 33.954 121.207 33.946C121.199 33.938 121.199 33.908 121.207 33.856L121.387 32.56H120.547L120.367 33.862C120.359 33.91 120.349 33.938 120.337 33.946C120.329 33.954 120.297 33.958 120.241 33.958H120.079C120.023 33.958 119.991 33.954 119.983 33.946C119.975 33.938 119.975 33.91 119.983 33.862L120.169 32.56H119.599C119.551 32.56 119.523 32.556 119.515 32.548C119.507 32.54 119.503 32.512 119.503 32.464V32.314C119.503 32.266 119.507 32.238 119.515 32.23C119.523 32.222 119.551 32.218 119.599 32.218H120.211C120.235 32.054 120.257 31.894 120.277 31.738C120.301 31.578 120.325 31.414 120.349 31.246H119.755C119.711 31.246 119.685 31.244 119.677 31.24C119.669 31.232 119.665 31.206 119.665 31.162V31C119.665 30.956 119.669 30.93 119.677 30.922C119.685 30.914 119.711 30.91 119.755 30.91H120.397L120.577 29.602C120.585 29.558 120.591 29.532 120.595 29.524C120.603 29.516 120.629 29.512 120.673 29.512H120.889C120.933 29.512 120.957 29.516 120.961 29.524C120.969 29.528 120.969 29.552 120.961 29.596L120.775 30.91H121.609L121.795 29.596C121.803 29.552 121.809 29.528 121.813 29.524C121.821 29.516 121.845 29.512 121.885 29.512H122.107C122.151 29.512 122.175 29.516 122.179 29.524C122.187 29.532 122.187 29.558 122.179 29.602L121.987 30.91H122.509C122.557 30.91 122.585 30.914 122.593 30.922C122.601 30.93 122.605 30.958 122.605 31.006V31.144ZM123.394 34.018C123.35 34.018 123.316 34.016 123.292 34.012C123.272 34.012 123.256 34.008 123.244 34C123.236 33.988 123.23 33.972 123.226 33.952C123.226 33.928 123.226 33.894 123.226 33.85L123.232 33.718C123.232 33.666 123.248 33.624 123.28 33.592L124.27 32.5C125.006 31.704 125.374 31.1 125.374 30.688C125.374 30.448 125.294 30.248 125.134 30.088C124.978 29.932 124.784 29.854 124.552 29.854C124.228 29.854 123.89 29.944 123.538 30.124C123.482 30.152 123.45 30.14 123.442 30.088L123.406 29.89C123.394 29.822 123.414 29.78 123.466 29.764C123.67 29.672 123.854 29.604 124.018 29.56C124.182 29.516 124.35 29.494 124.522 29.494C124.906 29.494 125.212 29.59 125.44 29.782C125.696 29.99 125.824 30.286 125.824 30.67C125.824 30.818 125.788 30.98 125.716 31.156C125.644 31.332 125.544 31.516 125.416 31.708C125.336 31.82 125.222 31.966 125.074 32.146C124.93 32.326 124.764 32.518 124.576 32.722C124.436 32.874 124.296 33.028 124.156 33.184C124.02 33.34 123.882 33.494 123.742 33.646H125.842C125.898 33.646 125.926 33.674 125.926 33.73V33.934C125.926 33.99 125.898 34.018 125.842 34.018H123.394ZM127.032 34.018C126.988 34.018 126.954 34.016 126.93 34.012C126.91 34.012 126.894 34.008 126.882 34C126.874 33.988 126.868 33.972 126.864 33.952C126.864 33.928 126.864 33.894 126.864 33.85L126.87 33.718C126.87 33.666 126.886 33.624 126.918 33.592L127.908 32.5C128.644 31.704 129.012 31.1 129.012 30.688C129.012 30.448 128.932 30.248 128.772 30.088C128.616 29.932 128.422 29.854 128.19 29.854C127.866 29.854 127.528 29.944 127.176 30.124C127.12 30.152 127.088 30.14 127.08 30.088L127.044 29.89C127.032 29.822 127.052 29.78 127.104 29.764C127.308 29.672 127.492 29.604 127.656 29.56C127.82 29.516 127.988 29.494 128.16 29.494C128.544 29.494 128.85 29.59 129.078 29.782C129.334 29.99 129.462 30.286 129.462 30.67C129.462 30.818 129.426 30.98 129.354 31.156C129.282 31.332 129.182 31.516 129.054 31.708C128.974 31.82 128.86 31.966 128.712 32.146C128.568 32.326 128.402 32.518 128.214 32.722C128.074 32.874 127.934 33.028 127.794 33.184C127.658 33.34 127.52 33.494 127.38 33.646H129.48C129.536 33.646 129.564 33.674 129.564 33.73V33.934C129.564 33.99 129.536 34.018 129.48 34.018H127.032ZM133.305 32.422C133.137 32.006 132.975 31.596 132.819 31.192C132.667 30.784 132.507 30.372 132.339 29.956C132.171 30.372 132.005 30.784 131.841 31.192C131.681 31.596 131.517 32.006 131.349 32.422H133.305ZM134.349 33.91C134.369 33.966 134.351 33.994 134.295 33.994H134.007C133.983 33.994 133.961 33.99 133.941 33.982C133.925 33.974 133.909 33.95 133.893 33.91L133.449 32.806H131.193C131.117 32.994 131.043 33.178 130.971 33.358C130.899 33.538 130.827 33.722 130.755 33.91C130.739 33.95 130.721 33.974 130.701 33.982C130.685 33.99 130.665 33.994 130.641 33.994H130.359C130.303 33.994 130.285 33.966 130.305 33.91L132.069 29.614C132.089 29.566 132.125 29.542 132.177 29.542H132.543C132.595 29.542 132.631 29.566 132.651 29.614L134.349 33.91ZM134.952 33.916C134.892 33.9 134.866 33.854 134.874 33.778L134.898 33.544C134.906 33.496 134.938 33.484 134.994 33.508C135.162 33.576 135.32 33.624 135.468 33.652C135.62 33.68 135.796 33.696 135.996 33.7C136.312 33.704 136.578 33.624 136.794 33.46C137.046 33.292 137.172 33.046 137.172 32.722C137.172 32.154 136.746 31.87 135.894 31.87H135.582C135.53 31.87 135.504 31.848 135.504 31.804V31.582C135.504 31.53 135.53 31.504 135.582 31.504H135.612C136.04 31.504 136.374 31.458 136.614 31.366C136.978 31.226 137.16 30.974 137.16 30.61C137.16 30.494 137.128 30.388 137.064 30.292C137.004 30.192 136.922 30.108 136.818 30.04C136.722 29.984 136.614 29.94 136.494 29.908C136.374 29.876 136.248 29.86 136.116 29.86C135.98 29.86 135.83 29.878 135.666 29.914C135.502 29.95 135.344 29.998 135.192 30.058C135.14 30.078 135.11 30.062 135.102 30.01L135.078 29.788C135.066 29.732 135.092 29.692 135.156 29.668C135.336 29.608 135.504 29.564 135.66 29.536C135.816 29.508 135.982 29.494 136.158 29.494C136.562 29.494 136.892 29.58 137.148 29.752C137.44 29.948 137.586 30.234 137.586 30.61C137.586 30.878 137.49 31.11 137.298 31.306C137.138 31.478 136.93 31.604 136.674 31.684C136.802 31.7 136.92 31.734 137.028 31.786C137.14 31.838 137.236 31.91 137.316 32.002C137.408 32.102 137.478 32.216 137.526 32.344C137.574 32.468 137.598 32.606 137.598 32.758C137.598 32.958 137.556 33.14 137.472 33.304C137.392 33.464 137.276 33.602 137.124 33.718C136.976 33.826 136.806 33.912 136.614 33.976C136.422 34.036 136.208 34.064 135.972 34.06C135.76 34.056 135.576 34.044 135.42 34.024C135.268 34.004 135.112 33.968 134.952 33.916ZM140.937 30.994C140.937 30.682 140.853 30.42 140.685 30.208C140.501 29.98 140.257 29.866 139.953 29.866C139.629 29.866 139.375 29.968 139.191 30.172C139.011 30.364 138.921 30.62 138.921 30.94C138.921 31.28 139.003 31.544 139.167 31.732H139.161C139.333 31.916 139.577 32.008 139.893 32.008C140.221 32.008 140.477 31.916 140.661 31.732C140.845 31.54 140.937 31.294 140.937 30.994ZM138.741 33.976C138.681 33.964 138.655 33.918 138.663 33.838L138.681 33.628C138.689 33.58 138.721 33.568 138.777 33.592C138.877 33.632 138.977 33.66 139.077 33.676C139.181 33.692 139.297 33.7 139.425 33.7C139.705 33.7 139.949 33.646 140.157 33.538C140.365 33.426 140.535 33.268 140.667 33.064C140.867 32.728 140.971 32.302 140.979 31.786C140.735 32.178 140.373 32.374 139.893 32.374C139.525 32.374 139.217 32.28 138.969 32.092C138.653 31.848 138.495 31.474 138.495 30.97C138.495 30.526 138.625 30.172 138.885 29.908C139.149 29.632 139.509 29.494 139.965 29.494C140.925 29.494 141.405 30.202 141.405 31.618C141.405 33.246 140.731 34.06 139.383 34.06C139.199 34.06 138.985 34.032 138.741 33.976ZM142.758 33.91C142.758 33.966 142.73 33.994 142.674 33.994H142.398C142.342 33.994 142.314 33.966 142.314 33.91V29.728C142.314 29.64 142.32 29.59 142.332 29.578C142.348 29.562 142.4 29.554 142.488 29.554H144.492C144.548 29.554 144.576 29.582 144.576 29.638V29.842C144.576 29.898 144.548 29.926 144.492 29.926H142.758V31.516H144.408C144.464 31.516 144.492 31.544 144.492 31.6V31.816C144.492 31.872 144.464 31.9 144.408 31.9H142.758V33.91Z" fill="black"/>
</svg>
