<svg width="34" height="34" viewBox="0 0 34 34" fill="none" xmlns="http://www.w3.org/2000/svg">
<path d="M2 23H15V34H2V23Z" fill="#F3EFE0"/>
<path d="M22 2H34V14H22V2Z" fill="#F3EFE0"/>
<path d="M2 9C2 5.13401 5.13401 2 9 2H27C30.866 2 34 5.13401 34 9V27C34 30.866 30.866 34 27 34H9C5.13401 34 2 30.866 2 27V9Z" fill="#F3EFE0"/>
<path d="M0 21H13V32H0V21Z" fill="#22A39F"/>
<path d="M20 0H32V12H20V0Z" fill="#22A39F"/>
<path d="M0 7C0 3.13401 3.13401 0 7 0H25C28.866 0 32 3.13401 32 7V25C32 28.866 28.866 32 25 32H7C3.13401 32 0 28.866 0 25V7Z" fill="#22A39F"/>
<path d="M18.6208 25.525L16.7958 20.125H11.8458L9.9208 25.525H11.7958V26H7.9708V25.525H9.1458L15.5208 8.35H17.5708L23.8708 25.525H25.0208V26H16.8458V25.525H18.6208ZM14.4208 13.025L12.0708 19.575H16.5958L14.4208 13.025Z" fill="#F3EFE0"/>
</svg>
