<svg width="117" height="34" viewBox="0 0 117 34" fill="none" xmlns="http://www.w3.org/2000/svg">
<path d="M54.5749 26.525L52.7499 21.125H47.7999L45.8749 26.525H47.7499V27H43.9249V26.525H45.0999L51.4749 9.35H53.5249L59.8249 26.525H60.9749V27H52.7999V26.525H54.5749ZM50.3749 14.025L48.0249 20.575H52.5499L50.3749 14.025ZM61.7583 9.5H69.3833V9.975H68.0083V26.525H69.3833V27H61.7583V26.525H63.1333V9.975H61.7583V9.5ZM80.02 9.725C77.4367 9.725 76.145 12.2167 76.145 17.2V19.175C76.145 21.5417 76.4867 23.4 77.17 24.75C77.8534 26.0833 78.8617 26.75 80.195 26.75C82.0284 26.75 83.7117 24.9667 85.245 21.4H85.695L85.52 26.975H85.245C85.145 26.7917 85.0534 26.6667 84.97 26.6C84.8867 26.5167 84.7617 26.475 84.595 26.475C84.445 26.475 83.845 26.6083 82.795 26.875C81.745 27.125 80.6784 27.25 79.595 27.25C76.8784 27.25 74.77 26.5167 73.27 25.05C71.7867 23.5833 71.045 21.3833 71.045 18.45C71.045 15.5 71.82 13.225 73.37 11.625C74.9367 10.025 77.0367 9.225 79.67 9.225C80.6867 9.225 81.6784 9.35833 82.645 9.625C83.6284 9.875 84.2034 10 84.37 10C84.5367 10 84.6617 9.96667 84.745 9.9C84.8284 9.81667 84.92 9.68333 85.02 9.5H85.295L85.495 14.925H85.045C84.295 13.2417 83.52 11.9583 82.72 11.075C81.9367 10.175 81.0367 9.725 80.02 9.725ZM99.0489 19.275V17.425C99.0489 14.375 98.8989 12.45 98.5989 11.65C98.2656 10.7333 97.7906 10.1667 97.1739 9.95C96.8239 9.81667 96.3989 9.75 95.8989 9.75C95.3989 9.75 94.9656 9.81667 94.5989 9.95C94.2489 10.0833 93.9573 10.3167 93.7239 10.65C93.4906 10.9833 93.2989 11.3333 93.1489 11.7C93.0156 12.0667 92.9073 12.5833 92.8239 13.25C92.7239 14.2167 92.6739 15.6417 92.6739 17.525V19.325C92.6739 21.3583 92.7489 22.8083 92.8989 23.675C93.0656 24.525 93.2656 25.1333 93.4989 25.5C94.0156 26.3167 94.8156 26.725 95.8989 26.725C97.2156 26.725 98.0656 26.175 98.4489 25.075C98.8489 23.9583 99.0489 22.025 99.0489 19.275ZM95.8489 27.25C93.0656 27.25 90.9823 26.5 89.5989 25C88.2323 23.4833 87.5489 21.3 87.5489 18.45C87.5489 15.5833 88.2823 13.3333 89.7489 11.7C91.2323 10.05 93.3239 9.225 96.0239 9.225C98.7239 9.225 100.757 10.0083 102.124 11.575C103.507 13.125 104.199 15.3333 104.199 18.2C104.199 21.0667 103.499 23.2917 102.099 24.875C100.716 26.4583 98.6323 27.25 95.8489 27.25Z" fill="#F3EFE0"/>
<path d="M2 23H15V34H2V23Z" fill="#F3EFE0"/>
<path d="M22 2H34V14H22V2Z" fill="#F3EFE0"/>
<path d="M2 9C2 5.13401 5.13401 2 9 2H27C30.866 2 34 5.13401 34 9V27C34 30.866 30.866 34 27 34H9C5.13401 34 2 30.866 2 27V9Z" fill="#F3EFE0"/>
<path d="M0 21H13V32H0V21Z" fill="#22A39F"/>
<path d="M20 0H32V12H20V0Z" fill="#22A39F"/>
<path d="M0 7C0 3.13401 3.13401 0 7 0H25C28.866 0 32 3.13401 32 7V25C32 28.866 28.866 32 25 32H7C3.13401 32 0 28.866 0 25V7Z" fill="#22A39F"/>
<path d="M18.6208 25.525L16.7958 20.125H11.8458L9.9208 25.525H11.7958V26H7.9708V25.525H9.1458L15.5208 8.35H17.5708L23.8708 25.525H25.0208V26H16.8458V25.525H18.6208ZM14.4208 13.025L12.0708 19.575H16.5958L14.4208 13.025Z" fill="#F3EFE0"/>
</svg>
