<svg width="160" height="160" viewBox="0 0 160 160" fill="none" xmlns="http://www.w3.org/2000/svg">
<rect width="160" height="160" rx="5" fill="#434242"/>
<path d="M50.9362 85.984C50.8082 85.984 50.7229 85.9733 50.6802 85.952C50.6376 85.92 50.5842 85.8453 50.5202 85.728L45.8962 77.296V85.6C45.8962 85.7707 45.8802 85.8773 45.8482 85.92C45.8162 85.9627 45.7149 85.984 45.5442 85.984H44.0882C43.9282 85.984 43.8269 85.9627 43.7842 85.92C43.7416 85.8773 43.7202 85.7707 43.7202 85.6V74.064C43.7202 73.8827 43.7362 73.7653 43.7682 73.712C43.8109 73.6587 43.9282 73.632 44.1202 73.632H45.7042C45.8322 73.632 45.9176 73.648 45.9602 73.68C46.0029 73.712 46.0616 73.7973 46.1362 73.936L50.6962 82.304V74.016C50.6962 73.856 50.7122 73.7547 50.7442 73.712C50.7869 73.6587 50.8882 73.632 51.0482 73.632H52.4882C52.6802 73.632 52.7922 73.6587 52.8242 73.712C52.8562 73.7653 52.8722 73.8667 52.8722 74.016V85.536C52.8722 85.7387 52.8509 85.8667 52.8082 85.92C52.7656 85.9627 52.6482 85.984 52.4562 85.984H50.9362ZM64.6252 84.736C64.2306 85.2373 63.7559 85.616 63.2012 85.872C62.6572 86.1173 62.0492 86.24 61.3772 86.24C60.6732 86.24 60.0546 86.112 59.5212 85.856C58.9986 85.6 58.5559 85.2587 58.1932 84.832C57.8412 84.3947 57.5746 83.888 57.3932 83.312C57.2119 82.736 57.1212 82.128 57.1212 81.488C57.1212 80.848 57.2066 80.24 57.3772 79.664C57.5586 79.088 57.8252 78.5867 58.1772 78.16C58.5399 77.7227 58.9879 77.3813 59.5212 77.136C60.0546 76.88 60.6732 76.752 61.3772 76.752C62.0812 76.752 62.6999 76.88 63.2332 77.136C63.7666 77.392 64.2092 77.7387 64.5612 78.176C64.9239 78.6027 65.1959 79.104 65.3772 79.68C65.5586 80.2453 65.6492 80.848 65.6492 81.488C65.6492 82.1173 65.5586 82.7147 65.3772 83.28C65.2066 83.8347 64.9559 84.32 64.6252 84.736ZM61.3772 78.624C61.0252 78.624 60.7159 78.7093 60.4492 78.88C60.1826 79.04 59.9586 79.2533 59.7772 79.52C59.6066 79.7867 59.4732 80.0907 59.3772 80.432C59.2919 80.7733 59.2492 81.1253 59.2492 81.488C59.2492 81.8507 59.2919 82.2027 59.3772 82.544C59.4732 82.8853 59.6066 83.1947 59.7772 83.472C59.9586 83.7387 60.1826 83.9573 60.4492 84.128C60.7159 84.288 61.0252 84.368 61.3772 84.368C61.7399 84.368 62.0546 84.288 62.3212 84.128C62.5879 83.9573 62.8066 83.7387 62.9772 83.472C63.1586 83.1947 63.2919 82.8853 63.3772 82.544C63.4626 82.2027 63.5052 81.8507 63.5052 81.488C63.5052 81.136 63.4626 80.7893 63.3772 80.448C63.2919 80.1067 63.1586 79.8027 62.9772 79.536C62.8066 79.2587 62.5879 79.04 62.3212 78.88C62.0546 78.7093 61.7399 78.624 61.3772 78.624ZM84.0128 84.56C83.7248 84.8053 83.3941 85.0187 83.0208 85.2C82.6474 85.3707 82.2528 85.5147 81.8368 85.632C81.4314 85.7493 81.0048 85.84 80.5568 85.904C80.1194 85.9573 79.6874 85.984 79.2608 85.984H77.2448C77.1274 85.984 77.0368 85.9787 76.9728 85.968C76.9088 85.9573 76.8608 85.936 76.8288 85.904C76.7968 85.872 76.7754 85.824 76.7648 85.76C76.7648 85.696 76.7648 85.6053 76.7648 85.488V74.208C76.7648 74.08 76.7648 73.9787 76.7648 73.904C76.7754 73.8293 76.7968 73.776 76.8288 73.744C76.8608 73.712 76.9088 73.6907 76.9728 73.68C77.0474 73.6693 77.1488 73.664 77.2768 73.664H80.0448C82.0928 73.664 83.6448 74.2667 84.7008 75.472C85.1488 75.9947 85.4794 76.6027 85.6928 77.296C85.9168 77.9893 86.0288 78.8213 86.0288 79.792C86.0288 80.7947 85.8528 81.712 85.5008 82.544C85.1594 83.3653 84.6634 84.0373 84.0128 84.56ZM83.0368 76.848C82.7274 76.4533 82.3168 76.1493 81.8048 75.936C81.3034 75.7227 80.7008 75.616 79.9968 75.616H78.9408V84.016H79.4688C80.0981 84.016 80.6794 83.9253 81.2128 83.744C81.7461 83.5627 82.2048 83.2907 82.5888 82.928C82.9728 82.5653 83.2714 82.1227 83.4848 81.6C83.7088 81.0667 83.8208 80.448 83.8208 79.744C83.8208 78.496 83.5594 77.5307 83.0368 76.848ZM95.4777 86.016C95.3817 86.016 95.3177 86.0053 95.2857 85.984C95.2644 85.9627 95.2537 85.8987 95.2537 85.792V85.104C95.0724 85.392 94.7737 85.6373 94.3577 85.84C93.9524 86.0427 93.5471 86.144 93.1417 86.144C92.7044 86.144 92.2831 86.0853 91.8777 85.968C91.4724 85.84 91.1364 85.648 90.8697 85.392C90.6137 85.1253 90.4111 84.8107 90.2617 84.448C90.1124 84.0747 90.0377 83.6533 90.0377 83.184C90.0377 82.6293 90.1711 82.128 90.4377 81.68C90.7044 81.232 91.0564 80.8853 91.4937 80.64C91.9417 80.384 92.4697 80.2027 93.0777 80.096C93.6857 79.9787 94.3577 79.9413 95.0937 79.984C95.0297 79.1413 94.6671 78.6773 94.0057 78.592C93.7924 78.5707 93.5737 78.576 93.3497 78.608C93.1364 78.64 92.9231 78.6933 92.7097 78.768C92.5071 78.832 92.3097 78.912 92.1177 79.008C91.9257 79.0933 91.7551 79.184 91.6057 79.28C91.3817 79.4293 91.2217 79.504 91.1257 79.504C91.0297 79.504 90.9817 79.3973 90.9817 79.184V77.856C90.9817 77.7173 90.9924 77.6213 91.0137 77.568C91.0457 77.504 91.1257 77.44 91.2537 77.376C91.5737 77.216 91.9471 77.0667 92.3737 76.928C92.8111 76.7893 93.3231 76.72 93.9097 76.72C94.9977 76.72 95.8084 76.9973 96.3417 77.552C96.8857 78.1067 97.1577 78.9653 97.1577 80.128V83.776C97.1577 83.9147 97.1577 84.0693 97.1577 84.24C97.1577 84.4 97.1577 84.5653 97.1577 84.736C97.1684 84.9067 97.1737 85.072 97.1737 85.232C97.1844 85.3813 97.1951 85.5147 97.2057 85.632C97.2271 85.8453 97.2164 85.9627 97.1737 85.984C97.1311 86.0053 97.0564 86.016 96.9497 86.016H95.4777ZM95.2537 81.6C94.6457 81.6107 94.1444 81.6587 93.7497 81.744C93.3551 81.8187 93.0351 81.9253 92.7897 82.064C92.5551 82.2027 92.3951 82.368 92.3097 82.56C92.2244 82.752 92.1817 82.9653 92.1817 83.2C92.1817 83.5413 92.2831 83.808 92.4857 84C92.6884 84.1813 92.9711 84.272 93.3337 84.272C93.9097 84.272 94.3684 84.064 94.7097 83.648C95.0617 83.2213 95.2431 82.5387 95.2537 81.6ZM106.229 85.872C106.015 85.968 105.759 86.048 105.461 86.112C105.162 86.1867 104.821 86.2187 104.437 86.208C104.042 86.1973 103.685 86.1013 103.365 85.92C103.045 85.728 102.81 85.4987 102.661 85.232C102.511 84.9227 102.421 84.576 102.389 84.192C102.357 83.7973 102.341 83.2907 102.341 82.672V78.896H101.205C101.002 78.896 100.901 78.7893 100.901 78.576V77.248C100.901 77.0347 101.002 76.928 101.205 76.928H102.341V74.8C102.341 74.5867 102.447 74.48 102.661 74.48H104.133C104.335 74.48 104.437 74.5867 104.437 74.8V76.928H105.797C105.925 76.928 106.005 76.9547 106.037 77.008C106.079 77.0507 106.101 77.1307 106.101 77.248V78.576C106.101 78.6933 106.079 78.7787 106.037 78.832C106.005 78.8747 105.925 78.896 105.797 78.896H104.437V82.48C104.437 82.864 104.437 83.1787 104.437 83.424C104.437 83.6587 104.447 83.8133 104.469 83.888C104.511 84.0907 104.602 84.2187 104.741 84.272C104.879 84.3253 105.029 84.3413 105.189 84.32C105.349 84.2987 105.503 84.2613 105.653 84.208C105.802 84.1547 105.919 84.1067 106.005 84.064C106.09 84.0213 106.154 84.0213 106.197 84.064C106.239 84.096 106.266 84.1707 106.277 84.288L106.421 85.488C106.431 85.584 106.426 85.664 106.405 85.728C106.383 85.7813 106.325 85.8293 106.229 85.872ZM114.809 86.016C114.713 86.016 114.649 86.0053 114.617 85.984C114.596 85.9627 114.585 85.8987 114.585 85.792V85.104C114.404 85.392 114.105 85.6373 113.689 85.84C113.284 86.0427 112.878 86.144 112.473 86.144C112.036 86.144 111.614 86.0853 111.209 85.968C110.804 85.84 110.468 85.648 110.201 85.392C109.945 85.1253 109.742 84.8107 109.593 84.448C109.444 84.0747 109.369 83.6533 109.369 83.184C109.369 82.6293 109.502 82.128 109.769 81.68C110.036 81.232 110.388 80.8853 110.825 80.64C111.273 80.384 111.801 80.2027 112.409 80.096C113.017 79.9787 113.689 79.9413 114.425 79.984C114.361 79.1413 113.998 78.6773 113.337 78.592C113.124 78.5707 112.905 78.576 112.681 78.608C112.468 78.64 112.254 78.6933 112.041 78.768C111.838 78.832 111.641 78.912 111.449 79.008C111.257 79.0933 111.086 79.184 110.937 79.28C110.713 79.4293 110.553 79.504 110.457 79.504C110.361 79.504 110.313 79.3973 110.313 79.184V77.856C110.313 77.7173 110.324 77.6213 110.345 77.568C110.377 77.504 110.457 77.44 110.585 77.376C110.905 77.216 111.278 77.0667 111.705 76.928C112.142 76.7893 112.654 76.72 113.241 76.72C114.329 76.72 115.14 76.9973 115.673 77.552C116.217 78.1067 116.489 78.9653 116.489 80.128V83.776C116.489 83.9147 116.489 84.0693 116.489 84.24C116.489 84.4 116.489 84.5653 116.489 84.736C116.5 84.9067 116.505 85.072 116.505 85.232C116.516 85.3813 116.526 85.5147 116.537 85.632C116.558 85.8453 116.548 85.9627 116.505 85.984C116.462 86.0053 116.388 86.016 116.281 86.016H114.809ZM114.585 81.6C113.977 81.6107 113.476 81.6587 113.081 81.744C112.686 81.8187 112.366 81.9253 112.121 82.064C111.886 82.2027 111.726 82.368 111.641 82.56C111.556 82.752 111.513 82.9653 111.513 83.2C111.513 83.5413 111.614 83.808 111.817 84C112.02 84.1813 112.302 84.272 112.665 84.272C113.241 84.272 113.7 84.064 114.041 83.648C114.393 83.2213 114.574 82.5387 114.585 81.6Z" fill="#F3EFE0" fill-opacity="0.4"/>
</svg>
