<svg width="21" height="16" viewBox="0 0 21 16" fill="none" xmlns="http://www.w3.org/2000/svg">
<path d="M10.0118 15.8405L8.98556 15.0409C7.22068 13.6417 5.7616 12.4347 4.60832 11.4199C3.45503 10.405 2.53631 9.49784 1.85218 8.69825C1.16804 7.89866 0.688309 7.1747 0.412985 6.52639C0.137662 5.87807 0 5.22255 0 4.55983C0 3.26096 0.50476 2.17628 1.51428 1.30577C2.5238 0.435258 3.7711 0 5.25618 0C6.20729 0 7.0875 0.194495 7.89678 0.583485C8.70606 0.972475 9.41106 1.53435 10.0118 2.26911C10.7126 1.49113 11.4551 0.918449 12.2394 0.551069C13.0236 0.18369 13.8663 0 14.7674 0C16.2524 0 17.4997 0.435258 18.5092 1.30577C19.5188 2.17628 20.0235 3.26096 20.0235 4.55983C20.0235 5.22255 19.8859 5.87807 19.6105 6.52639C19.3352 7.1747 18.8555 7.89866 18.1714 8.69825C17.4872 9.49784 16.5685 10.405 15.4152 11.4199C14.2619 12.4347 12.8028 13.6417 11.038 15.0409L10.0118 15.8405ZM10.0118 14.1333C11.701 12.7935 13.0911 11.6446 14.1821 10.6865C15.2731 9.72837 16.1398 8.88914 16.7822 8.16879C17.4246 7.44844 17.8752 6.80635 18.1338 6.24253C18.3924 5.6787 18.5218 5.11884 18.5218 4.56296C18.5218 3.61001 18.1714 2.82738 17.4705 2.21508C16.7697 1.60278 15.8705 1.29663 14.773 1.29663C13.9132 1.29663 13.1175 1.52354 12.3858 1.97737C11.6541 2.43119 11.063 3.0687 10.6125 3.8899H9.38603C8.95219 3.08311 8.36942 2.4492 7.63772 1.98817C6.90601 1.52715 6.11029 1.29663 5.25054 1.29663C4.153 1.29663 3.25382 1.60278 2.553 2.21508C1.85218 2.82738 1.50176 3.61124 1.50176 4.56666C1.50176 5.12398 1.63108 5.68718 1.88972 6.25626C2.14836 6.82533 2.59889 7.47365 3.24131 8.20121C3.88373 8.92876 4.75559 9.76797 5.85688 10.7188C6.95818 11.6697 8.34314 12.8079 10.0118 14.1333Z" fill="#E13535"/>
</svg>
