<svg width="92" height="35" viewBox="0 0 92 35" fill="none" xmlns="http://www.w3.org/2000/svg">
<rect x="0.5" y="0.5" width="91" height="34" rx="4.5" stroke="#F3EFE0"/>
<path d="M14.6946 21.47H6.10465C6.01798 21.47 5.96132 21.45 5.93465 21.41C5.91465 21.37 5.90465 21.32 5.90465 21.26V20.56C5.90465 20.4867 5.91465 20.4333 5.93465 20.4C5.96132 20.3667 6.01798 20.35 6.10465 20.35H9.70465V19.09H7.89465C7.60132 19.09 7.40465 19.0367 7.30465 18.93C7.21132 18.8233 7.16465 18.6433 7.16465 18.39V16.6C7.16465 16.4733 7.17465 16.37 7.19465 16.29C7.21465 16.2033 7.24798 16.1367 7.29465 16.09C7.34798 16.0367 7.41798 16 7.50465 15.98C7.59798 15.9533 7.71798 15.94 7.86465 15.94H12.1146C12.2013 15.94 12.2446 15.8967 12.2446 15.81V15.2C12.2446 15.12 12.2013 15.08 12.1146 15.08H7.41465C7.34132 15.08 7.28798 15.0667 7.25465 15.04C7.22798 15.0133 7.21465 14.96 7.21465 14.88V14.15C7.21465 14.0233 7.28132 13.96 7.41465 13.96H12.8646C13.0113 13.96 13.1313 13.97 13.2246 13.99C13.3246 14.01 13.398 14.0467 13.4446 14.1C13.498 14.1467 13.5346 14.2133 13.5546 14.3C13.5746 14.3867 13.5846 14.4967 13.5846 14.63V16.34C13.5846 16.48 13.5746 16.5933 13.5546 16.68C13.5346 16.7667 13.498 16.8367 13.4446 16.89C13.398 16.9367 13.3246 16.97 13.2246 16.99C13.1313 17.01 13.0113 17.02 12.8646 17.02H8.63465C8.55465 17.02 8.51465 17.0567 8.51465 17.13V17.85C8.51465 17.93 8.55798 17.97 8.64465 17.97H13.6046C13.678 17.97 13.7313 17.98 13.7646 18C13.798 18.0133 13.8146 18.0667 13.8146 18.16V18.89C13.8146 19.0233 13.748 19.09 13.6146 19.09H11.0946V20.35H14.6946C14.8346 20.35 14.9046 20.42 14.9046 20.56V21.26C14.9046 21.4 14.8346 21.47 14.6946 21.47ZM25.5989 21.37H17.0089C16.9223 21.37 16.8656 21.35 16.8389 21.31C16.8189 21.27 16.8089 21.22 16.8089 21.16V20.44C16.8089 20.3667 16.8189 20.3133 16.8389 20.28C16.8656 20.2467 16.9223 20.23 17.0089 20.23H22.9189C22.9589 19.9633 22.9956 19.64 23.0289 19.26C23.0689 18.8733 23.1023 18.48 23.1289 18.08C23.1556 17.6733 23.1756 17.26 23.1889 16.84C23.2023 16.42 23.2089 16.0233 23.2089 15.65C23.2089 15.55 23.1923 15.48 23.1589 15.44C23.1323 15.3933 23.0423 15.37 22.8889 15.37H18.2189C18.1523 15.37 18.0989 15.3633 18.0589 15.35C18.0189 15.33 17.9989 15.2767 17.9989 15.19V14.4C17.9989 14.3267 18.0189 14.28 18.0589 14.26C18.0989 14.24 18.1523 14.23 18.2189 14.23H23.8889C24.1289 14.23 24.3056 14.2867 24.4189 14.4C24.5389 14.5067 24.5989 14.7 24.5989 14.98C24.5989 15.4933 24.5889 16.0033 24.5689 16.51C24.5489 17.0167 24.5223 17.5 24.4889 17.96C24.4556 18.4133 24.4189 18.84 24.3789 19.24C24.3389 19.64 24.2956 19.97 24.2489 20.23H25.5989C25.7389 20.23 25.8089 20.3 25.8089 20.44V21.16C25.8089 21.3 25.7389 21.37 25.5989 21.37ZM35.5332 20.26H34.5232C34.4499 20.26 34.3999 20.2467 34.3732 20.22C34.3466 20.1867 34.3332 20.1333 34.3332 20.06V13.67C34.3332 13.5433 34.3966 13.48 34.5232 13.48H35.5332C35.6532 13.48 35.7132 13.5433 35.7132 13.67V20.07C35.7132 20.1433 35.6999 20.1933 35.6732 20.22C35.6532 20.2467 35.6066 20.26 35.5332 20.26ZM30.6632 18.74C30.3032 18.74 29.9732 18.68 29.6732 18.56C29.3732 18.44 29.1132 18.2733 28.8932 18.06C28.6732 17.84 28.5032 17.5867 28.3832 17.3C28.2632 17.0067 28.2032 16.69 28.2032 16.35C28.2032 16.03 28.2632 15.7267 28.3832 15.44C28.5032 15.1467 28.6732 14.89 28.8932 14.67C29.1132 14.45 29.3732 14.2767 29.6732 14.15C29.9732 14.0167 30.3032 13.95 30.6632 13.95C31.0299 13.95 31.3666 14.0167 31.6732 14.15C31.9799 14.2767 32.2432 14.45 32.4632 14.67C32.6899 14.89 32.8632 15.1467 32.9832 15.44C33.1099 15.7267 33.1732 16.03 33.1732 16.35C33.1732 16.69 33.1099 17.0067 32.9832 17.3C32.8632 17.5867 32.6899 17.84 32.4632 18.06C32.2432 18.2733 31.9799 18.44 31.6732 18.56C31.3666 18.68 31.0299 18.74 30.6632 18.74ZM35.8132 22.91H30.5632C30.4166 22.91 30.2966 22.8967 30.2032 22.87C30.1166 22.85 30.0466 22.81 29.9932 22.75C29.9399 22.69 29.9032 22.6133 29.8832 22.52C29.8632 22.4267 29.8532 22.31 29.8532 22.17V19.91C29.8532 19.77 29.9199 19.7 30.0532 19.7H31.0432C31.1766 19.7 31.2432 19.77 31.2432 19.91V21.61C31.2432 21.71 31.2966 21.76 31.4032 21.76H35.8132C35.8666 21.76 35.9132 21.7733 35.9532 21.8C35.9932 21.82 36.0132 21.8667 36.0132 21.94V22.73C36.0132 22.8233 35.9932 22.8767 35.9532 22.89C35.9132 22.9033 35.8666 22.91 35.8132 22.91ZM30.6632 15.16C30.5032 15.16 30.3532 15.19 30.2132 15.25C30.0799 15.31 29.9599 15.3967 29.8532 15.51C29.7532 15.6167 29.6732 15.7467 29.6132 15.9C29.5599 16.0467 29.5332 16.2067 29.5332 16.38C29.5332 16.5533 29.5599 16.7167 29.6132 16.87C29.6732 17.0167 29.7532 17.1467 29.8532 17.26C29.9599 17.3667 30.0799 17.45 30.2132 17.51C30.3532 17.57 30.5032 17.6 30.6632 17.6C30.9966 17.6 31.2699 17.4867 31.4832 17.26C31.7032 17.0267 31.8132 16.7333 31.8132 16.38C31.8132 16.0267 31.7032 15.7367 31.4832 15.51C31.2699 15.2767 30.9966 15.16 30.6632 15.16ZM40.1281 23.11C40.0548 23.11 40.0014 23.0967 39.9681 23.07C39.9414 23.0433 39.9281 22.99 39.9281 22.91V13.98C39.9281 13.8467 39.9948 13.78 40.1281 13.78H40.9881C41.1214 13.78 41.1881 13.8467 41.1881 13.98V22.91C41.1881 22.99 41.1714 23.0433 41.1381 23.07C41.1114 23.0967 41.0614 23.11 40.9881 23.11H40.1281ZM50.5582 21.22C50.0982 21.2933 49.6182 21.3533 49.1182 21.4C48.6248 21.4467 48.1215 21.48 47.6082 21.5C47.1015 21.52 46.5948 21.5333 46.0882 21.54C45.5815 21.54 45.0948 21.5333 44.6282 21.52C44.5482 21.52 44.4948 21.5033 44.4682 21.47C44.4482 21.4367 44.4382 21.3833 44.4382 21.31V20.59C44.4382 20.5167 44.4515 20.4633 44.4782 20.43C44.5048 20.3967 44.5548 20.3833 44.6282 20.39C45.0082 20.3967 45.3948 20.4033 45.7882 20.41C46.1882 20.4167 46.5882 20.4133 46.9882 20.4V19.58C46.7548 19.5333 46.5382 19.4633 46.3382 19.37C46.1448 19.2767 45.9748 19.1633 45.8282 19.03C45.6882 18.89 45.5748 18.7367 45.4882 18.57C45.4082 18.3967 45.3682 18.2067 45.3682 18C45.3682 17.7533 45.4282 17.53 45.5482 17.33C45.6748 17.1233 45.8448 16.9467 46.0582 16.8C46.2715 16.6533 46.5148 16.5433 46.7882 16.47C47.0682 16.39 47.3648 16.35 47.6782 16.35C47.9848 16.35 48.2748 16.39 48.5482 16.47C48.8282 16.5433 49.0715 16.6533 49.2782 16.8C49.4848 16.9467 49.6482 17.1233 49.7682 17.33C49.8948 17.53 49.9582 17.7533 49.9582 18C49.9582 18.2067 49.9182 18.3967 49.8382 18.57C49.7582 18.7433 49.6448 18.8967 49.4982 19.03C49.3515 19.1633 49.1782 19.28 48.9782 19.38C48.7848 19.4733 48.5748 19.5433 48.3482 19.59V20.35C48.7015 20.33 49.0448 20.3033 49.3782 20.27C49.7182 20.2367 50.0548 20.1933 50.3882 20.14C50.4882 20.1267 50.5515 20.13 50.5782 20.15C50.6115 20.1633 50.6348 20.21 50.6482 20.29L50.7282 21.01C50.7415 21.1033 50.7315 21.16 50.6982 21.18C50.6715 21.1933 50.6248 21.2067 50.5582 21.22ZM52.2682 23.07H51.2482C51.1748 23.07 51.1248 23.0567 51.0982 23.03C51.0715 23.01 51.0582 22.96 51.0582 22.88V13.67C51.0582 13.5967 51.0715 13.5467 51.0982 13.52C51.1248 13.4933 51.1748 13.48 51.2482 13.48H52.2682C52.3415 13.48 52.3915 13.4933 52.4182 13.52C52.4448 13.5467 52.4582 13.5967 52.4582 13.67V22.88C52.4582 22.96 52.4448 23.01 52.4182 23.03C52.3915 23.0567 52.3415 23.07 52.2682 23.07ZM50.1882 16.05H45.0482C44.9015 16.05 44.8282 15.98 44.8282 15.84V15.21C44.8282 15.07 44.9015 15 45.0482 15H50.1882C50.3282 15 50.3982 15.07 50.3982 15.21V15.85C50.3982 15.9833 50.3282 16.05 50.1882 16.05ZM48.9882 14.63H46.3582C46.3048 14.63 46.2548 14.62 46.2082 14.6C46.1682 14.5733 46.1482 14.5133 46.1482 14.42V13.78C46.1482 13.6933 46.1682 13.6367 46.2082 13.61C46.2548 13.5833 46.3048 13.57 46.3582 13.57H48.9882C49.1348 13.57 49.2082 13.6433 49.2082 13.79V14.41C49.2082 14.5567 49.1348 14.63 48.9882 14.63ZM47.6782 17.39C47.3715 17.39 47.1315 17.45 46.9582 17.57C46.7848 17.69 46.6982 17.8333 46.6982 18C46.6982 18.1667 46.7815 18.31 46.9482 18.43C47.1215 18.55 47.3648 18.61 47.6782 18.61C47.9782 18.61 48.2115 18.55 48.3782 18.43C48.5515 18.31 48.6382 18.1667 48.6382 18C48.6382 17.8333 48.5515 17.69 48.3782 17.57C48.2115 17.45 47.9782 17.39 47.6782 17.39ZM58.5025 17.29C58.1625 17.29 57.8491 17.2467 57.5625 17.16C57.2825 17.0667 57.0358 16.94 56.8225 16.78C56.6158 16.6133 56.4525 16.4167 56.3325 16.19C56.2191 15.9633 56.1625 15.7133 56.1625 15.44C56.1625 15.1867 56.2191 14.95 56.3325 14.73C56.4525 14.51 56.6158 14.32 56.8225 14.16C57.0358 14 57.2825 13.8733 57.5625 13.78C57.8491 13.6867 58.1625 13.64 58.5025 13.64C58.8425 13.64 59.1525 13.6867 59.4325 13.78C59.7191 13.8733 59.9658 14 60.1725 14.16C60.3791 14.32 60.5391 14.51 60.6525 14.73C60.7725 14.95 60.8325 15.1867 60.8325 15.44C60.8325 15.7133 60.7725 15.9633 60.6525 16.19C60.5391 16.4167 60.3791 16.6133 60.1725 16.78C59.9658 16.94 59.7191 17.0667 59.4325 17.16C59.1525 17.2467 58.8425 17.29 58.5025 17.29ZM63.1725 20.92H62.1525C62.0791 20.92 62.0291 20.91 62.0025 20.89C61.9758 20.8633 61.9625 20.81 61.9625 20.73V19.99H60.4625C60.4025 19.99 60.3525 19.98 60.3125 19.96C60.2791 19.9333 60.2625 19.8833 60.2625 19.81V19.12C60.2625 19.0333 60.2825 18.9833 60.3225 18.97C60.3625 18.95 60.4091 18.94 60.4625 18.94H61.9625V13.66C61.9625 13.5867 61.9758 13.5367 62.0025 13.51C62.0291 13.4833 62.0791 13.47 62.1525 13.47H63.1725C63.2458 13.47 63.2958 13.4833 63.3225 13.51C63.3491 13.5367 63.3625 13.5867 63.3625 13.66V20.73C63.3625 20.81 63.3491 20.8633 63.3225 20.89C63.2958 20.91 63.2458 20.92 63.1725 20.92ZM63.3725 22.93H57.5725C57.4325 22.93 57.3158 22.9167 57.2225 22.89C57.1358 22.87 57.0658 22.8333 57.0125 22.78C56.9658 22.7267 56.9325 22.6533 56.9125 22.56C56.8925 22.4667 56.8825 22.35 56.8825 22.21V20.73C56.8825 20.5967 56.9491 20.53 57.0825 20.53H58.0625C58.2025 20.53 58.2725 20.5967 58.2725 20.73V21.64C58.2725 21.74 58.3258 21.79 58.4325 21.79H63.3725C63.4258 21.79 63.4725 21.8033 63.5125 21.83C63.5525 21.85 63.5725 21.8967 63.5725 21.97V22.75C63.5725 22.8433 63.5525 22.8967 63.5125 22.91C63.4725 22.9233 63.4258 22.93 63.3725 22.93ZM58.8925 20.14H57.9425C57.8025 20.14 57.7325 20.0733 57.7325 19.94V18.73C57.3591 18.7433 56.9925 18.7533 56.6325 18.76C56.2725 18.76 55.9191 18.7533 55.5725 18.74C55.4925 18.74 55.4391 18.7233 55.4125 18.69C55.3925 18.6567 55.3825 18.6033 55.3825 18.53V17.86C55.3825 17.7867 55.3958 17.7333 55.4225 17.7C55.4491 17.66 55.4991 17.6433 55.5725 17.65C56.5191 17.6633 57.4758 17.6567 58.4425 17.63C59.4158 17.5967 60.3658 17.52 61.2925 17.4C61.3925 17.3867 61.4558 17.39 61.4825 17.41C61.5158 17.4233 61.5391 17.47 61.5525 17.55L61.6325 18.22C61.6458 18.3 61.6358 18.3533 61.6025 18.38C61.5691 18.4 61.5191 18.4167 61.4525 18.43C61.0791 18.4833 60.6958 18.5267 60.3025 18.56C59.9091 18.5933 59.5091 18.6267 59.1025 18.66V19.94C59.1025 20.0733 59.0325 20.14 58.8925 20.14ZM58.5025 14.72C58.2025 14.72 57.9558 14.7933 57.7625 14.94C57.5691 15.08 57.4725 15.2533 57.4725 15.46C57.4725 15.6867 57.5691 15.8733 57.7625 16.02C57.9558 16.16 58.2025 16.23 58.5025 16.23C58.8025 16.23 59.0458 16.16 59.2325 16.02C59.4258 15.8733 59.5225 15.6867 59.5225 15.46C59.5225 15.2533 59.4258 15.08 59.2325 14.94C59.0458 14.7933 58.8025 14.72 58.5025 14.72ZM75.1068 18.22H73.8668V22.88C73.8668 22.96 73.8534 23.01 73.8268 23.03C73.8068 23.0567 73.7601 23.07 73.6868 23.07H72.6768C72.6034 23.07 72.5501 23.0567 72.5168 23.03C72.4901 23.01 72.4768 22.96 72.4768 22.88V13.67C72.4768 13.5967 72.4901 13.5467 72.5168 13.52C72.5501 13.4933 72.6034 13.48 72.6768 13.48H73.6868C73.7601 13.48 73.8068 13.4933 73.8268 13.52C73.8534 13.5467 73.8668 13.5967 73.8668 13.67V17.08H75.1068C75.1668 17.08 75.2134 17.09 75.2468 17.11C75.2868 17.1233 75.3068 17.1767 75.3068 17.27V18.03C75.3068 18.11 75.2868 18.1633 75.2468 18.19C75.2134 18.21 75.1668 18.22 75.1068 18.22ZM67.2268 21.01C67.1334 21.0633 67.0601 21.09 67.0068 21.09C66.9601 21.09 66.9101 21.0533 66.8568 20.98L66.3868 20.28C66.3401 20.2133 66.3234 20.15 66.3368 20.09C66.3568 20.03 66.3968 19.9833 66.4568 19.95C67.4634 19.3833 68.2568 18.73 68.8368 17.99C69.4168 17.25 69.7668 16.4433 69.8868 15.57C69.9068 15.43 69.8568 15.36 69.7368 15.36H66.9468C66.8601 15.36 66.8068 15.3467 66.7868 15.32C66.7668 15.2867 66.7568 15.2333 66.7568 15.16V14.41C66.7568 14.33 66.7701 14.28 66.7968 14.26C66.8234 14.2333 66.8734 14.22 66.9468 14.22H70.5868C70.9201 14.22 71.1401 14.29 71.2468 14.43C71.3534 14.5633 71.3968 14.7767 71.3768 15.07C71.3368 15.67 71.2134 16.2533 71.0068 16.82C70.8068 17.3867 70.5268 17.9233 70.1668 18.43C69.8134 18.9367 69.3901 19.41 68.8968 19.85C68.4034 20.2833 67.8468 20.67 67.2268 21.01ZM84.8811 18.47H83.8811C83.8077 18.47 83.7577 18.46 83.7311 18.44C83.7044 18.4133 83.6911 18.36 83.6911 18.28V13.67C83.6911 13.5967 83.7044 13.5467 83.7311 13.52C83.7577 13.4933 83.8077 13.48 83.8811 13.48H84.8811C85.0077 13.48 85.0711 13.5433 85.0711 13.67V18.28C85.0711 18.36 85.0577 18.4133 85.0311 18.44C85.0044 18.46 84.9544 18.47 84.8811 18.47ZM80.0511 18.35C79.6844 18.35 79.3511 18.29 79.0511 18.17C78.7511 18.0433 78.4944 17.8767 78.2811 17.67C78.0677 17.4567 77.9011 17.2133 77.7811 16.94C77.6677 16.66 77.6111 16.37 77.6111 16.07C77.6111 15.7633 77.6677 15.4733 77.7811 15.2C77.9011 14.92 78.0677 14.6767 78.2811 14.47C78.4944 14.2567 78.7511 14.0867 79.0511 13.96C79.3511 13.8333 79.6844 13.77 80.0511 13.77C80.4177 13.77 80.7511 13.8333 81.0511 13.96C81.3577 14.0867 81.6177 14.2567 81.8311 14.47C82.0511 14.6767 82.2177 14.92 82.3311 15.2C82.4511 15.4733 82.5111 15.7633 82.5111 16.07C82.5111 16.37 82.4511 16.66 82.3311 16.94C82.2111 17.2133 82.0444 17.4567 81.8311 17.67C81.6177 17.8767 81.3577 18.0433 81.0511 18.17C80.7511 18.29 80.4177 18.35 80.0511 18.35ZM84.3011 22.9H79.9611C79.8011 22.9 79.6711 22.89 79.5711 22.87C79.4711 22.85 79.3911 22.8133 79.3311 22.76C79.2777 22.7133 79.2377 22.6433 79.2111 22.55C79.1911 22.4567 79.1811 22.3333 79.1811 22.18V19.22C79.1811 19.1 79.2444 19.04 79.3711 19.04H80.3711C80.4444 19.04 80.4944 19.0533 80.5211 19.08C80.5544 19.1 80.5711 19.1467 80.5711 19.22V19.95H83.6811V19.18C83.6811 19.1067 83.6977 19.0567 83.7311 19.03C83.7644 19.0033 83.8111 18.99 83.8711 18.99H84.8911C84.9511 18.99 84.9944 19.0033 85.0211 19.03C85.0544 19.0567 85.0711 19.1067 85.0711 19.18V22.21C85.0711 22.47 85.0211 22.65 84.9211 22.75C84.8277 22.85 84.6211 22.9 84.3011 22.9ZM80.0511 14.92C79.8844 14.92 79.7311 14.9533 79.5911 15.02C79.4577 15.08 79.3411 15.1633 79.2411 15.27C79.1411 15.37 79.0611 15.49 79.0011 15.63C78.9477 15.77 78.9211 15.9167 78.9211 16.07C78.9211 16.2167 78.9477 16.3567 79.0011 16.49C79.0611 16.6233 79.1411 16.7433 79.2411 16.85C79.3411 16.95 79.4577 17.0333 79.5911 17.1C79.7311 17.16 79.8844 17.19 80.0511 17.19C80.2244 17.19 80.3811 17.16 80.5211 17.1C80.6611 17.0333 80.7811 16.95 80.8811 16.85C80.9811 16.7433 81.0577 16.6233 81.1111 16.49C81.1711 16.3567 81.2011 16.2167 81.2011 16.07C81.2011 15.9167 81.1711 15.77 81.1111 15.63C81.0577 15.49 80.9777 15.37 80.8711 15.27C80.7711 15.1633 80.6511 15.08 80.5111 15.02C80.3711 14.9533 80.2177 14.92 80.0511 14.92ZM83.6811 21.06H80.5711V21.68C80.5711 21.74 80.6044 21.77 80.6711 21.77H83.5811C83.6477 21.77 83.6811 21.74 83.6811 21.68V21.06Z" fill="#F3EFE0"/>
</svg>
