<svg width="20" height="20" viewBox="0 0 20 20" fill="none" xmlns="http://www.w3.org/2000/svg">
<path d="M3.75 16.25H4.66667L13.8958 7.02084L12.9792 6.10417L3.75 15.3333V16.25ZM16.5417 6.125L13.875 3.45834L14.75 2.58334C14.9861 2.34723 15.2778 2.22917 15.625 2.22917C15.9722 2.22917 16.2639 2.34723 16.5 2.58334L17.4167 3.50001C17.6528 3.73612 17.7708 4.02778 17.7708 4.37501C17.7708 4.72223 17.6528 5.01389 17.4167 5.25001L16.5417 6.125ZM15.6667 7L5.16667 17.5H2.5V14.8333L13 4.33334L15.6667 7ZM13.4375 6.5625L12.9792 6.10417L13.8958 7.02084L13.4375 6.5625Z" fill="#F3EFE0"/>
</svg>
