<svg width="21" height="17" viewBox="0 0 21 17" fill="none" xmlns="http://www.w3.org/2000/svg">
<path d="M10.0118 16.705L8.98556 15.9054C7.22069 14.5062 5.7616 13.2992 4.60831 12.2844C3.45503 11.2695 2.53631 10.3623 1.85218 9.56275C1.16804 8.76316 0.688309 8.03921 0.412985 7.39089C0.137662 6.74257 0 6.08705 0 5.42433C0 4.12546 0.50476 3.04078 1.51428 2.17028C2.5238 1.29976 3.7711 0.864502 5.25618 0.864502C6.20729 0.864502 7.08749 1.059 7.89678 1.44799C8.70606 1.83698 9.41106 2.39885 10.0118 3.13361C10.7126 2.35563 11.4551 1.78295 12.2394 1.41557C13.0236 1.04819 13.8663 0.864502 14.7674 0.864502C16.2524 0.864502 17.4997 1.29976 18.5093 2.17028C19.5188 3.04078 20.0235 4.12546 20.0235 5.42433C20.0235 6.08705 19.8859 6.74257 19.6105 7.39089C19.3352 8.03921 18.8555 8.76316 18.1714 9.56275C17.4872 10.3623 16.5685 11.2695 15.4152 12.2844C14.2619 13.2992 12.8028 14.5062 11.038 15.9054L10.0118 16.705ZM10.0118 14.9978C11.701 13.658 13.0911 12.5091 14.1821 11.551C15.2731 10.5929 16.1398 9.75364 16.7822 9.03329C17.4246 8.31294 17.8752 7.67085 18.1338 7.10704C18.3924 6.5432 18.5218 5.98334 18.5218 5.42746C18.5218 4.47451 18.1714 3.69188 17.4705 3.07958C16.7697 2.46728 15.8705 2.16114 14.773 2.16114C13.9132 2.16114 13.1175 2.38805 12.3858 2.84187C11.6541 3.29569 11.063 3.9332 10.6125 4.7544H9.38603C8.95219 3.94761 8.36942 3.3137 7.63772 2.85267C6.90601 2.39165 6.11029 2.16114 5.25054 2.16114C4.15301 2.16114 3.25382 2.46728 2.553 3.07958C1.85218 3.69188 1.50176 4.47574 1.50176 5.43116C1.50176 5.98848 1.63108 6.55168 1.88972 7.12076C2.14836 7.68984 2.59889 8.33815 3.24131 9.06571C3.88373 9.79326 4.75559 10.6325 5.85688 11.5833C6.95818 12.5342 8.34314 13.6724 10.0118 14.9978Z" fill="#F3E0E0"/>
</svg>
