<svg width="20" height="16" viewBox="0 0 20 16" fill="none" xmlns="http://www.w3.org/2000/svg">
<path d="M10 15.8219L8.975 15.0233C7.2122 13.6257 5.75483 12.4201 4.6029 11.4064C3.45097 10.3928 2.53333 9.48668 1.85 8.68803C1.16667 7.88938 0.6875 7.16627 0.4125 6.51872C0.1375 5.87116 0 5.21641 0 4.55447C0 3.25713 0.504167 2.17372 1.5125 1.30424C2.52083 0.434747 3.76667 0 5.25 0C6.2 0 7.07917 0.194266 7.8875 0.582799C8.69583 0.971332 9.4 1.53255 10 2.26644C10.7 1.48938 11.4417 0.917369 12.225 0.550422C13.0083 0.183474 13.85 0 14.75 0C16.2333 0 17.4792 0.434747 18.4875 1.30424C19.4958 2.17372 20 3.25713 20 4.55447C20 5.21641 19.8625 5.87116 19.5875 6.51872C19.3125 7.16627 18.8333 7.88938 18.15 8.68803C17.4667 9.48668 16.549 10.3928 15.3971 11.4064C14.2452 12.4201 12.7878 13.6257 11.025 15.0233L10 15.8219ZM10 14.1167C11.6873 12.7785 13.0757 11.6309 14.1654 10.6739C15.2551 9.71693 16.1208 8.8787 16.7625 8.15919C17.4042 7.43969 17.8542 6.79835 18.1125 6.2352C18.3708 5.67203 18.5 5.11283 18.5 4.5576C18.5 3.60576 18.15 2.82406 17.45 2.21248C16.75 1.6009 15.8519 1.29511 14.7556 1.29511C13.8969 1.29511 13.1021 1.52175 12.3712 1.97504C11.6404 2.42833 11.05 3.06509 10.6 3.88533H9.375C8.94167 3.07948 8.35958 2.44632 7.62875 1.98583C6.8979 1.52535 6.10311 1.29511 5.24437 1.29511C4.14812 1.29511 3.25 1.6009 2.55 2.21248C1.85 2.82406 1.5 3.607 1.5 4.56129C1.5 5.11796 1.62917 5.68049 1.8875 6.2489C2.14583 6.81731 2.59583 7.46487 3.2375 8.19157C3.87917 8.91827 4.75 9.75649 5.85 10.7062C6.95 11.656 8.33333 12.7928 10 14.1167Z" fill="#F3EFE0"/>
</svg>
